# xmcd
#
# Track frame offsets: 
#        182
#        11340
#        24462
#        40040
#        57247
#        72617
#        87405
#        100902
#        117340
#        132097
#        146735
#        158587
#        174807
#        185205
#        198570
#        212330
#
# Disc length: 3046 seconds
#
# Revision: 1
# Processed by: cddbd v1.5.2PL0 Copyright (c) Steve Scherf et al.
# Submitted via: ExactAudioCopy v0.99pb4
#
DISCID=da0be410
DTITLE=Various Artist - Les Plus Grands Moments Country - Vol. 2 - CD 1
DYEAR=1994
DGENRE=Country
TTITLE0=Marty Robbins - Love Is Blues
TTITLE1=George Jones - The Bird
TTITLE2=Tammy Wynette - Talgin' To Myself Again
TTITLE3=Lacy J. Dalton - Adios And Run
TTITLE4=Mickey Gilley - Your Memory Ain't It Used To Be
TTITLE5=Billy Joe Shaver - Street Walking Woman
TTITLE6=Tammy Wynette - Emmylou Harris - Beneath A Painted Sky
TTITLE7=Merle Haggard - George Jones - C.C.Waterback
TTITLE8=Willie Nelson - Born For Trouble
TTITLE9=Waylon Jennings - Where Corn Don't Crow
TTITLE10=Dolly Parton - Tammy Wynette - Loretta Lynn - Sittin' On The 
TTITLE10=Front Porch Swing
TTITLE11=Dolly Parton - Romeo
TTITLE12=Johnny Cash - Busted
TTITLE13=Charlie Rich - Behind Closed Doors
TTITLE14=Merle Haggard - Big City
TTITLE15=Exile - She's A Miracle
EXTD=YEAR: 1994
EXTT0=
EXTT1=
EXTT2=
EXTT3=
EXTT4=
EXTT5=
EXTT6=
EXTT7=
EXTT8=
EXTT9=
EXTT10=
EXTT11=
EXTT12=
EXTT13=
EXTT14=
EXTT15=
PLAYORDER=
